<svg width="69" height="69" viewBox="0 0 69 69" fill="none" xmlns="http://www.w3.org/2000/svg">
<g clip-path="url(#clip0_92_104)">
<g clip-path="url(#clip1_92_104)">
<path d="M20.4166 27.6495C19.1437 26.0994 18.9753 23.8713 19.2947 22.1299C19.6457 20.2092 20.9429 18.1665 22.4694 17.175C23.7404 18.8355 23.9791 21.0074 23.6982 22.7929C23.3981 24.7102 22.1813 26.7425 20.4166 27.6495ZM33.1979 28.7392C32.9294 27.0957 33.2193 25.3225 34.2684 23.6531C31.6865 22.5944 28.9307 22.6763 26.9084 23.7971C24.2329 25.28 23.8081 27.1817 21.9498 28.2117C20.0354 29.2728 17.8765 28.803 15.559 30.0875C13.2864 31.347 11.6351 34.0729 11.412 37.2888C11.3326 38.4759 11.5525 39.774 12.0148 41.0994C13.3177 44.8142 16.6319 48.7565 21.3843 51.254C23.6928 52.4645 26.5519 53.6845 28.7439 52.4941C30.6977 51.436 30.5499 49.869 33.1735 48.3979C35.7999 46.9226 37.0106 47.9294 38.9411 46.8353C41.113 45.6074 41.5589 42.2564 41.7561 39.6574C41.8907 37.7962 41.8454 36.9188 41.6826 34.9891C37.4182 35.6139 33.8135 32.5313 33.1979 28.7392Z" fill="black"/>
</g>
<rect x="1" y="37" width="68" height="32" fill="white"/>
<path d="M65.8268 36.728H65.7593V31.2593C65.7593 22.9096 62.5078 15.0597 56.6036 9.15567C50.6995 3.25164 42.8497 0 34.5 0C26.1503 0 18.3004 3.25151 12.3964 9.15567C6.49235 15.0598 3.2407 22.9096 3.2407 31.2593V36.728H3.17319C1.42348 36.728 0 38.1515 0 39.9012C0 41.6509 1.42348 43.0744 3.17319 43.0744H3.24408C3.24259 43.0968 3.2407 43.1191 3.2407 43.1419C3.2407 50.7654 3.59111 57.4519 7.89706 62.0719C12.363 66.8633 20.5675 69 34.5 69C36.0574 69 37.5428 68.9731 38.9598 68.919C38.9602 68.919 38.9607 68.919 38.9611 68.919C38.9666 68.919 38.972 68.9183 38.9774 68.9182C42.6968 68.7755 45.9424 68.4438 48.7636 67.9098C48.7811 67.9069 48.7985 67.9036 48.8159 67.8997C54.4992 66.8168 58.4572 64.9101 61.1028 62.0716C62.2489 60.8419 63.1126 59.4645 63.7663 57.9632C63.7948 57.9111 63.818 57.8571 63.8368 57.8016C65.5742 53.6927 65.7593 48.6635 65.7593 43.1419C65.7593 43.1191 65.7574 43.0968 65.7559 43.0744H65.8268C67.5765 43.0744 69 41.6509 69 39.9012C69 38.1515 67.5765 36.728 65.8268 36.728ZM5.26615 31.2593C5.26615 23.4507 8.30701 16.1094 13.8285 10.5878C19.3501 5.0663 26.6914 2.02544 34.5 2.02544C42.3086 2.02544 49.6499 5.0663 55.1715 10.5878C60.693 16.1094 63.7339 23.4507 63.7339 31.2593V36.728H5.26615V31.2593ZM62.4707 55.6374L61.8875 55.0542L62.9053 54.0363C62.78 54.5848 62.6359 55.119 62.4707 55.6374ZM53.9107 64.3612L53.2456 63.696L56.1344 60.8072L57.6912 62.364C56.6158 63.1269 55.36 63.7922 53.9107 64.3612ZM47.044 66.1362L44.6037 63.6959L47.4925 60.8071L50.3813 63.6959L48.1276 65.9497C47.7735 66.0152 47.4121 66.0772 47.044 66.1362ZM20.946 65.9639L18.6781 63.6959L21.5669 60.8071L24.4556 63.6958L22.0074 66.144C21.6475 66.0867 21.2924 66.0273 20.946 65.9639ZM11.3435 62.3886L12.9249 60.8072L15.8137 63.696L15.1322 64.3775C13.6806 63.811 12.4216 63.1486 11.3435 62.3886ZM5.27087 44.5112L7.17181 46.4122L5.36796 48.216C5.30679 47.0179 5.28032 45.7808 5.27087 44.5112ZM6.07781 53.96L7.17181 55.054L6.54339 55.6825C6.36434 55.1263 6.21068 54.5513 6.07781 53.96ZM5.71525 50.7331L8.60407 47.8443L11.4929 50.733L8.60407 53.6216L5.71525 50.7331ZM54.7021 50.7331L51.8133 53.6219L48.9245 50.7331L51.8133 47.8443L54.7021 50.7331ZM53.2456 46.4122L56.1344 43.5233L59.0232 46.4122L56.1344 49.301L53.2456 46.4122ZM43.1715 56.4863L46.0603 59.3751L43.1715 62.2639L40.2826 59.3751L43.1715 56.4863ZM38.8505 57.9429L35.9617 55.054L38.8505 52.1654L41.7393 55.0542L38.8505 57.9429ZM44.6037 55.054L47.4925 52.1652L50.3813 55.054L47.4925 57.9429L44.6037 55.054ZM47.4924 49.301L44.6036 46.4122L47.4924 43.5235L50.3812 46.4123L47.4924 49.301ZM46.0603 50.7331L43.1715 53.6219L40.2826 50.7331L43.1715 47.8443L46.0603 50.7331ZM38.8505 49.301L35.9617 46.4123L38.8505 43.5235L41.7393 46.4122L38.8505 49.301ZM37.4184 50.7331L34.5296 53.6218L31.6408 50.7331L34.5296 47.8443L37.4184 50.7331ZM25.8877 56.4863L28.7764 59.375L25.8876 62.2638L22.9989 59.3751L25.8877 56.4863ZM21.5668 57.9429L18.6779 55.054L21.5668 52.1652L24.4556 55.054L21.5668 57.9429ZM27.32 55.054L30.2088 52.1652L33.0976 55.0539L30.2088 57.9426L27.32 55.054ZM30.2086 49.301L27.3198 46.4122L30.2086 43.5233L33.0975 46.4122L30.2086 49.301ZM28.7765 50.7331L25.8877 53.6219L22.9989 50.7331L25.8877 47.8443L28.7765 50.7331ZM21.5668 49.301L18.6779 46.4122L21.5668 43.5235L24.4556 46.4123L21.5668 49.301ZM20.1346 50.7331L17.2458 53.6219L14.357 50.7331L17.2458 47.8444L20.1346 50.7331ZM12.9249 49.301L10.0361 46.4123L12.9249 43.5235L15.8137 46.4122L12.9249 49.301ZM12.9249 52.1654L15.8137 55.0542L12.9249 57.943L10.0361 55.0542L12.9249 52.1654ZM17.2458 56.4863L20.1346 59.3751L17.2458 62.2639L14.357 59.3751L17.2458 56.4863ZM25.8877 65.128L27.5118 66.7522C26.4766 66.6806 25.4829 66.5916 24.5308 66.4848L25.8877 65.128ZM27.3198 63.6959L30.2086 60.8071L33.0975 63.6959L30.2086 66.5847L27.3198 63.6959ZM31.6408 59.375L34.5296 56.4863L37.4184 59.3751L34.5296 62.2639L31.6408 59.375ZM38.8505 60.8072L41.7393 63.696L38.8505 66.5849L35.9617 63.696L38.8505 60.8072ZM43.1715 65.1282L44.5219 66.4786C43.5734 66.5859 42.5834 66.6753 41.552 66.7474L43.1715 65.1282ZM51.8133 62.2638L48.9245 59.375L51.8133 56.4862L54.7021 59.375L51.8133 62.2638ZM53.2456 55.054L56.1344 52.1652L59.0232 55.054L56.1344 57.9429L53.2456 55.054ZM57.5665 50.7331L60.4553 47.8443L63.3442 50.7331L60.4553 53.6219L57.5665 50.7331ZM61.8875 46.4122L63.7286 44.571C63.7189 45.7997 63.6929 46.9979 63.6349 48.1596L61.8875 46.4122ZM60.4552 44.98L58.5495 43.0744H62.3609L60.4552 44.98ZM51.8133 44.98L49.9077 43.0744H53.719L51.8133 44.98ZM43.1715 44.98L41.2658 43.0744H45.0771L43.1715 44.98ZM34.5296 44.98L32.6239 43.0744H36.4352L34.5296 44.98ZM25.8877 44.98L23.982 43.0744H27.7934L25.8877 44.98ZM17.2458 44.98L15.3401 43.0744H19.1515L17.2458 44.98ZM8.60394 44.98L6.69827 43.0744H10.5096L8.60394 44.98ZM7.36072 57.7294L8.60394 56.4862L11.4928 59.375L9.7737 61.094C9.63813 60.962 9.50634 60.8276 9.37887 60.6908C8.55168 59.8034 7.89017 58.8118 7.36072 57.7294ZM32.6978 66.96L34.5297 65.128L36.3607 66.959C35.7512 66.9684 35.1334 66.9744 34.5001 66.9744C33.8868 66.9746 33.2885 66.9688 32.6978 66.96ZM59.6211 60.6908C59.5031 60.8175 59.3809 60.9419 59.2559 61.0645L57.5664 59.375L60.4552 56.4862L61.6586 57.6895C61.126 58.7875 60.4585 59.7926 59.6211 60.6908ZM65.8268 41.0489H3.17319C2.54031 41.0489 2.02544 40.5341 2.02544 39.9012C2.02544 39.2683 2.54031 38.7534 3.17319 38.7534H65.8268C66.4597 38.7534 66.9746 39.2683 66.9746 39.9012C66.9746 40.5341 66.4597 41.0489 65.8268 41.0489Z" fill="black"/>
</g>
<defs>
<clipPath id="clip0_92_104">
<rect width="69" height="69" fill="white"/>
</clipPath>
<clipPath id="clip1_92_104">
<rect width="34" height="34" fill="white" transform="translate(2 28.482) rotate(-28.997)"/>
</clipPath>
</defs>
</svg>
