<svg width="34" height="35" viewBox="0 0 34 35" fill="none" xmlns="http://www.w3.org/2000/svg">
<path d="M27.4476 10.6481C27.4476 10.3462 27.6855 10.1013 27.9788 10.1013C28.2721 10.1013 28.5101 10.3473 28.5101 10.6481V31.6277C28.5101 32.5539 28.1404 33.3971 27.5472 34.0088C26.954 34.6195 26.1338 35 25.2341 35H8.76531C7.8655 35 7.04429 34.6195 6.45214 34.0088C5.85892 33.3982 5.48926 32.5551 5.48926 31.6277V10.6481C5.48926 10.3462 5.72722 10.1013 6.02048 10.1013C6.31378 10.1013 6.55174 10.3473 6.55174 10.6481V31.6277C6.55174 32.2521 6.8019 32.8228 7.20254 33.2352C7.60318 33.6477 8.15769 33.9063 8.76419 33.9063H25.233C25.8395 33.9063 26.3928 33.6476 26.7936 33.2352C27.1953 32.8216 27.4454 32.252 27.4454 31.6288V10.6481H27.4476Z" fill="black"/>
<path d="M13.0376 30.2149C13.0376 30.5168 12.7997 30.7617 12.5064 30.7617C12.2131 30.7617 11.9751 30.5168 11.9751 30.2149V10.7894C11.9751 10.4875 12.2131 10.2425 12.5064 10.2425C12.7997 10.2425 13.0376 10.4875 13.0376 10.7894V30.2149Z" fill="black"/>
<path d="M17.5312 30.2149C17.5312 30.5168 17.2933 30.7617 17 30.7617C16.7067 30.7617 16.4688 30.5168 16.4688 30.2149V10.7894C16.4688 10.4875 16.7067 10.2425 17 10.2425C17.2933 10.2425 17.5312 10.4875 17.5312 10.7894V30.2149Z" fill="black"/>
<path d="M22.0258 30.2149C22.0258 30.5168 21.7879 30.7617 21.4946 30.7617C21.2013 30.7617 20.9634 30.5168 20.9634 30.2149V10.7894C20.9634 10.4875 21.2013 10.2425 21.4946 10.2425C21.7879 10.2425 22.0258 10.4875 22.0258 10.7894V30.2149Z" fill="black"/>
<path d="M12.7275 3.3724C12.7275 3.67433 12.4896 3.91929 12.1963 3.91929C11.903 3.91929 11.665 3.67433 11.665 3.3724C11.665 2.44383 12.0336 1.60077 12.6268 0.990096C13.2201 0.379379 14.0391 0 14.9411 0H19.0583C19.9592 0 20.7782 0.38053 21.3714 0.991199C21.9646 1.60187 22.3343 2.44723 22.3343 3.3724C22.3343 3.67433 22.0964 3.91929 21.8031 3.91929C21.5098 3.91929 21.2719 3.67433 21.2719 3.3724C21.2719 2.74806 21.0217 2.17724 20.6211 1.76482C20.2203 1.35235 19.6659 1.09373 19.0594 1.09373H14.9423C14.3346 1.09373 13.7812 1.3512 13.3795 1.76367C12.9776 2.17724 12.7275 2.74691 12.7275 3.3724Z" fill="black"/>
<path d="M4.64826 4.94464H29.3514C29.8727 4.94464 30.3486 5.16452 30.6939 5.52002L30.6961 5.52232C31.0415 5.87777 31.2551 6.36768 31.2551 6.90431V8.31709C31.2551 8.61897 31.0171 8.86393 30.7238 8.86393H30.7094H3.27589C2.98259 8.86393 2.74463 8.61897 2.74463 8.31709V8.30342V6.90431C2.74463 6.36883 2.95822 5.87777 3.30356 5.52232L3.3058 5.52002C3.65109 5.16457 4.12809 4.94464 4.64826 4.94464ZM29.3515 6.03842H4.64826C4.41696 6.03842 4.20556 6.13529 4.05504 6.29134L4.0528 6.29364C3.90117 6.44854 3.80711 6.66506 3.80711 6.90431V7.7702H30.1915V6.90431C30.1915 6.66621 30.0974 6.44858 29.9458 6.29364L29.9435 6.29134C29.7931 6.13529 29.5828 6.03842 29.3515 6.03842Z" fill="black"/>
</svg>
