<svg width="35" height="35" viewBox="0 0 35 35" fill="none" xmlns="http://www.w3.org/2000/svg">
<path d="M16.0415 5.83325H5.83317C5.05962 5.83325 4.31776 6.14054 3.77078 6.68752C3.22379 7.2345 2.9165 7.97637 2.9165 8.74992V29.1666C2.9165 29.9401 3.22379 30.682 3.77078 31.229C4.31776 31.776 5.05962 32.0833 5.83317 32.0833H26.2498C27.0234 32.0833 27.7653 31.776 28.3122 31.229C28.8592 30.682 29.1665 29.9401 29.1665 29.1666V18.9583" stroke="black" stroke-width="2" stroke-linecap="round" stroke-linejoin="round"/>
<path d="M26.979 3.64584C27.5592 3.06568 28.346 2.73975 29.1665 2.73975C29.987 2.73975 30.7738 3.06568 31.354 3.64584C31.9342 4.226 32.2601 5.01287 32.2601 5.83334C32.2601 6.65381 31.9342 7.44068 31.354 8.02084L17.4998 21.875L11.6665 23.3333L13.1248 17.5L26.979 3.64584Z" stroke="black" stroke-width="2" stroke-linecap="round" stroke-linejoin="round"/>
</svg>
