<svg width="47" height="47" viewBox="0 0 47 47" fill="none" xmlns="http://www.w3.org/2000/svg">
<g clip-path="url(#clip0_77_19)">
<path d="M23.5 25.4623C16.4814 25.4623 10.7709 19.7518 10.7709 12.7331C10.7709 5.71442 16.4814 0.00392151 23.5 0.00392151C30.5187 0.00392151 36.2292 5.71442 36.2292 12.7331C36.2292 19.7518 30.5187 25.4623 23.5 25.4623ZM23.5 1.96225C17.5624 1.96225 12.7292 6.79346 12.7292 12.7331C12.7292 18.6727 17.5624 23.5039 23.5 23.5039C29.4377 23.5039 34.2709 18.6727 34.2709 12.7331C34.2709 6.79346 29.4377 1.96225 23.5 1.96225Z" fill="black"/>
<path d="M23.5 19.5873C19.7205 19.5873 16.6459 16.5127 16.6459 12.7331C16.6459 8.9535 19.7205 5.87892 23.5 5.87892C27.2796 5.87892 30.3542 8.9535 30.3542 12.7331C30.3542 16.5127 27.2796 19.5873 23.5 19.5873ZM23.5 7.83725C20.7995 7.83725 18.6042 10.0345 18.6042 12.7331C18.6042 15.4317 20.7995 17.6289 23.5 17.6289C26.2006 17.6289 28.3959 15.4317 28.3959 12.7331C28.3959 10.0345 26.2006 7.83725 23.5 7.83725Z" fill="black"/>
<path d="M32.3125 47.002C31.3098 47.002 30.3072 46.6201 29.5434 45.8563L23.5 39.5995L17.4683 45.8426C15.931 47.3838 13.444 47.3838 11.9184 45.8544C11.1782 45.1161 10.7708 44.133 10.7708 43.0873C10.7708 42.0395 11.1782 41.0565 11.9184 40.3182L17.8345 34.5274C17.4683 34.4353 17.1139 34.3374 16.7692 34.2317C14.7306 33.5913 12.8016 32.6709 11.0293 31.4939C9.64283 30.5715 8.8125 29.0323 8.8125 27.3775C8.8125 25.9714 9.55667 24.7612 10.8022 24.1365C12.0673 23.502 13.5713 23.641 14.7247 24.5046C19.8262 28.3195 27.1738 28.3195 32.2773 24.5046C33.4327 23.643 34.9347 23.502 36.1998 24.1365C37.4453 24.7592 38.1895 25.9714 38.1895 27.3775C38.1895 29.0323 37.3591 30.5715 35.9707 31.4939C34.2003 32.6709 32.2694 33.5913 30.2367 34.2297C29.89 34.3374 29.5336 34.4353 29.1655 34.5274L35.0757 40.3103C35.8238 41.0565 36.2311 42.0395 36.2311 43.0873C36.2311 44.133 35.8238 45.1161 35.0835 45.8563C34.3178 46.6201 33.3152 47.002 32.3125 47.002ZM23.5 37.2123C23.7663 37.2123 24.0209 37.32 24.203 37.5119L30.9378 44.4855C31.6565 45.2003 32.9529 45.214 33.6951 44.4737C34.0633 44.1036 34.2689 43.6121 34.2689 43.0892C34.2689 42.5663 34.0652 42.0748 33.6951 41.7047L26.4825 34.6488C26.2182 34.3923 26.1222 34.0084 26.2319 33.6579C26.3415 33.3073 26.6392 33.0469 27.0015 32.9842C27.9415 32.8217 28.8365 32.6121 29.6531 32.3615C31.5018 31.7798 33.2662 30.9397 34.8838 29.8646C35.7239 29.3065 36.2272 28.3782 36.2272 27.3795C36.2272 26.4453 35.5927 26.0263 35.3185 25.8892C34.7134 25.5856 34.0143 25.6542 33.4483 26.0733C30.5539 28.2353 27.1151 29.3789 23.498 29.3789C19.881 29.3789 16.4402 28.2372 13.5478 26.0733C12.9838 25.6542 12.2827 25.5837 11.6775 25.8892C11.4053 26.0243 10.7708 26.4434 10.7708 27.3775C10.7708 28.3743 11.2741 29.3025 12.1142 29.8626C13.7318 30.9377 15.4963 31.7779 17.3508 32.3615C18.1635 32.6102 19.0565 32.8197 19.9985 32.9822C20.3608 33.0449 20.6585 33.3054 20.7681 33.6559C20.8778 34.0084 20.7818 34.3903 20.5175 34.6468L13.2971 41.7086C12.9328 42.0728 12.7292 42.5644 12.7292 43.0873C12.7292 43.6101 12.9328 44.1017 13.303 44.4718C14.0452 45.212 15.3298 45.212 16.072 44.4718L22.797 37.5119C22.9791 37.32 23.2337 37.2123 23.5 37.2123Z" fill="black"/>
</g>
<defs>
<clipPath id="clip0_77_19">
<rect width="47" height="47" fill="white"/>
</clipPath>
</defs>
</svg>
