<svg width="38" height="38" viewBox="0 0 38 38" fill="none" xmlns="http://www.w3.org/2000/svg">
<g clip-path="url(#clip0_77_40)">
<path d="M19 20.5865C13.3254 20.5865 8.70837 15.9695 8.70837 10.2948C8.70837 4.62017 13.3254 0.00317383 19 0.00317383C24.6747 0.00317383 29.2917 4.62017 29.2917 10.2948C29.2917 15.9695 24.6747 20.5865 19 20.5865ZM19 1.58651C14.1994 1.58651 10.2917 5.49259 10.2917 10.2948C10.2917 15.0971 14.1994 19.0032 19 19.0032C23.8007 19.0032 27.7084 15.0971 27.7084 10.2948C27.7084 5.49259 23.8007 1.58651 19 1.58651Z" fill="white"/>
<path d="M19 15.8365C15.9442 15.8365 13.4584 13.3507 13.4584 10.2948C13.4584 7.23901 15.9442 4.75317 19 4.75317C22.0559 4.75317 24.5417 7.23901 24.5417 10.2948C24.5417 13.3507 22.0559 15.8365 19 15.8365ZM19 6.33651C16.8166 6.33651 15.0417 8.11301 15.0417 10.2948C15.0417 12.4767 16.8166 14.2532 19 14.2532C21.1835 14.2532 22.9584 12.4767 22.9584 10.2948C22.9584 8.11301 21.1835 6.33651 19 6.33651Z" fill="white"/>
<path d="M26.125 38.0014C25.3143 38.0014 24.5037 37.6927 23.8862 37.0752L19 32.0164L14.1233 37.0641C12.8804 38.3102 10.8696 38.3102 9.63617 37.0736C9.03767 36.4767 8.70833 35.6818 8.70833 34.8363C8.70833 33.9893 9.03767 33.1944 9.63617 32.5975L14.4194 27.9156C14.1233 27.8412 13.8367 27.762 13.5581 27.6765C11.9098 27.1588 10.3503 26.4146 8.91733 25.463C7.79633 24.7173 7.125 23.4728 7.125 22.1348C7.125 20.998 7.72667 20.0195 8.73367 19.5144C9.7565 19.0014 10.9725 19.1138 11.9051 19.8121C16.0297 22.8964 21.9703 22.8964 26.0965 19.8121C27.0307 19.1154 28.2451 19.0014 29.2679 19.5144C30.2749 20.0179 30.8766 20.998 30.8766 22.1348C30.8766 23.4728 30.2052 24.7173 29.0827 25.463C27.6513 26.4146 26.0902 27.1588 24.4467 27.6749C24.1664 27.762 23.8783 27.8412 23.5806 27.9156L28.3591 32.5912C28.9639 33.1944 29.2932 33.9893 29.2932 34.8363C29.2932 35.6818 28.9639 36.4767 28.3654 37.0752C27.7463 37.6927 26.9357 38.0014 26.125 38.0014ZM19 30.0863C19.2153 30.0863 19.4212 30.1734 19.5684 30.3286L25.0135 35.9668C25.5946 36.5448 26.6427 36.5558 27.2428 35.9573C27.5405 35.6581 27.7068 35.2607 27.7068 34.8379C27.7068 34.4152 27.5421 34.0178 27.2428 33.7185L21.4114 28.0138C21.1977 27.8063 21.1201 27.496 21.2088 27.2126C21.2974 26.9292 21.5381 26.7186 21.831 26.6679C22.591 26.5365 23.3146 26.3671 23.9748 26.1644C25.4695 25.6942 26.8961 25.0149 28.2039 24.1457C28.8832 23.6944 29.2901 22.9439 29.2901 22.1364C29.2901 21.3812 28.7771 21.0423 28.5554 20.9315C28.0662 20.6861 27.5009 20.7415 27.0433 21.0803C24.7032 22.8283 21.9228 23.753 18.9984 23.753C16.074 23.753 13.2921 22.8299 10.9535 21.0803C10.4975 20.7415 9.93067 20.6845 9.44142 20.9315C9.22133 21.0408 8.70833 21.3796 8.70833 22.1348C8.70833 22.9408 9.11525 23.6913 9.7945 24.1441C11.1023 25.0133 12.5289 25.6926 14.0283 26.1644C14.6854 26.3655 15.4074 26.5349 16.169 26.6663C16.4619 26.717 16.7026 26.9276 16.7912 27.211C16.8799 27.496 16.8023 27.8048 16.5886 28.0122L10.7508 33.7217C10.4563 34.0162 10.2917 34.4136 10.2917 34.8363C10.2917 35.2591 10.4563 35.6565 10.7556 35.9558C11.3557 36.5543 12.3943 36.5543 12.9944 35.9558L18.4316 30.3286C18.5788 30.1734 18.7847 30.0863 19 30.0863Z" fill="white"/>
</g>
<defs>
<clipPath id="clip0_77_40">
<rect width="38" height="38" fill="white"/>
</clipPath>
</defs>
</svg>
