<svg width="79" height="79" viewBox="0 0 79 79" fill="none" xmlns="http://www.w3.org/2000/svg">
<path fill-rule="evenodd" clip-rule="evenodd" d="M54.3125 23.2491C54.3125 33.7659 47.9596 42.7917 39.5 42.7917C31.0338 42.7917 24.6875 33.7659 24.6875 23.2458C24.6875 12.7322 30.1517 6.58334 39.5 6.58334C48.8483 6.58334 54.3125 12.7289 54.3125 23.2491ZM13.5024 66.3008C14.7697 67.8083 20.2273 72.4167 39.5 72.4167C58.7727 72.4167 64.227 67.8083 65.4976 66.304C65.6154 66.1595 65.7025 65.9923 65.7534 65.8129C65.8044 65.6335 65.8181 65.4455 65.7938 65.2606C65.5042 62.3573 62.8906 49.375 39.5 49.375C16.1094 49.375 13.4958 62.3573 13.2029 65.2606C13.179 65.4458 13.1933 65.6338 13.2448 65.8133C13.2963 65.9927 13.384 66.1564 13.5024 66.3008Z" fill="black"/>
</svg>
