<svg width="54" height="54" viewBox="0 0 54 54" fill="none" xmlns="http://www.w3.org/2000/svg">
<path d="M48.23 7.3338C47.8813 7.03251 47.4568 6.83244 47.0025 6.75527C46.5482 6.67811 46.0814 6.7268 45.6528 6.89606L6.72282 22.1901C6.21391 22.39 5.78342 22.7493 5.49577 23.2143C5.20812 23.6793 5.07877 24.2249 5.12709 24.7695C5.17541 25.3142 5.39879 25.8285 5.76381 26.2356C6.12882 26.6427 6.61585 26.9206 7.152 27.0278L17.7188 29.1413V42.1842C17.7135 42.686 17.8598 43.1777 18.1386 43.5949C18.4174 44.0122 18.8157 44.3355 19.2813 44.5227C19.5932 44.6533 19.9279 44.721 20.2661 44.7218C20.5965 44.7208 20.9235 44.6542 21.228 44.5258C21.5325 44.3974 21.8085 44.2098 22.0399 43.9739L28.0719 37.9419L36.9721 45.7741C37.4307 46.1814 38.0226 46.4066 38.636 46.4073C38.9026 46.407 39.1676 46.3649 39.4212 46.2827C39.8395 46.15 40.2158 45.91 40.5124 45.5865C40.8089 45.2631 41.0155 44.8675 41.1115 44.4392L49.0457 9.81746C49.1492 9.36845 49.128 8.89967 48.9842 8.46187C48.8405 8.02408 48.5796 7.63397 48.23 7.3338ZM6.80799 24.6204C6.78701 24.4381 6.8281 24.2541 6.92464 24.0981C7.02117 23.942 7.16751 23.8231 7.33998 23.7606L43.0254 9.74119L18.3668 27.5501L7.48293 25.3733C7.30214 25.342 7.13717 25.2507 7.0147 25.114C6.89222 24.9774 6.8194 24.8035 6.80799 24.6204ZM20.8466 42.7808C20.7286 42.8988 20.5782 42.9791 20.4146 43.0117C20.2509 43.0443 20.0813 43.0275 19.9271 42.9637C19.7729 42.8998 19.6412 42.7917 19.5485 42.653C19.4557 42.5142 19.4063 42.3511 19.4063 42.1842V30.316L26.8026 36.8249L20.8466 42.7808ZM47.4008 9.44049L39.4666 44.0623C39.434 44.2047 39.3649 44.3363 39.2661 44.444C39.1673 44.5517 39.0422 44.6319 38.9031 44.6768C38.764 44.7216 38.6157 44.7296 38.4726 44.6999C38.3295 44.6701 38.1965 44.6037 38.0868 44.5072L19.9136 28.5147L47.2644 8.76144C47.3364 8.85728 47.386 8.96801 47.4096 9.08551C47.4332 9.20301 47.4302 9.3243 47.4008 9.44049Z" fill="black"/>
</svg>
