<svg width="44" height="43" viewBox="0 0 44 43" fill="none" xmlns="http://www.w3.org/2000/svg">
<path d="M39.2985 5.83988C39.0144 5.59997 38.6685 5.44065 38.2983 5.37921C37.9282 5.31776 37.5478 5.35653 37.1986 5.49132L5.47785 17.6699C5.06318 17.8291 4.71241 18.1152 4.47803 18.4855C4.24365 18.8557 4.13826 19.2902 4.17763 19.7239C4.217 20.1576 4.39901 20.5672 4.69643 20.8913C4.99385 21.2155 5.39069 21.4368 5.82755 21.5222L14.4375 23.2051V33.5911C14.4332 33.9907 14.5524 34.3823 14.7796 34.7145C15.0068 35.0467 15.3313 35.3042 15.7107 35.4532C15.9649 35.5572 16.2375 35.6111 16.5131 35.6119C16.7824 35.611 17.0488 35.558 17.2969 35.4557C17.545 35.3535 17.7699 35.2041 17.9584 35.0163L22.8734 30.213L30.1254 36.4497C30.4991 36.7741 30.9814 36.9534 31.4812 36.954C31.6984 36.9537 31.9143 36.9202 32.121 36.8547C32.4618 36.7491 32.7684 36.558 33.0101 36.3004C33.2517 36.0428 33.4201 35.7278 33.4983 35.3868L39.9631 7.81762C40.0475 7.46008 40.0302 7.08678 39.9131 6.73817C39.7959 6.38955 39.5834 6.07891 39.2985 5.83988ZM5.54725 19.6051C5.53015 19.46 5.56363 19.3134 5.64229 19.1892C5.72095 19.065 5.84018 18.9703 5.98072 18.9205L35.0577 7.75688L14.9655 21.938L6.0972 20.2047C5.94988 20.1798 5.81547 20.107 5.71567 19.9982C5.61588 19.8894 5.55654 19.7509 5.54725 19.6051ZM16.9861 34.0662C16.8899 34.1601 16.7675 34.2241 16.6341 34.2501C16.5007 34.276 16.3625 34.2627 16.2369 34.2118C16.1113 34.161 16.0039 34.0749 15.9284 33.9644C15.8528 33.8539 15.8125 33.724 15.8125 33.5911V24.1406L21.8391 29.3235L16.9861 34.0662ZM38.6229 7.51744L32.158 35.0866C32.1314 35.2001 32.0751 35.3048 31.9946 35.3906C31.9141 35.4764 31.8122 35.5402 31.6988 35.576C31.5855 35.6117 31.4646 35.618 31.348 35.5943C31.2314 35.5707 31.1231 35.5178 31.0337 35.4409L16.2259 22.7061L38.5117 6.97671C38.5704 7.05303 38.6108 7.1412 38.63 7.23477C38.6492 7.32833 38.6468 7.42492 38.6229 7.51744Z" fill="white"/>
</svg>
