<svg width="36" height="36" viewBox="0 0 36 36" fill="none" xmlns="http://www.w3.org/2000/svg">
<g clip-path="url(#clip0_77_50)">
<path d="M18 0C8.07444 0 0 8.07445 0 18C0 21.3858 0.941106 24.6729 2.72525 27.5273C2.01474 30.0187 0.73016 34.7303 0.71666 34.7797C0.650406 35.0231 0.721385 35.2833 0.903237 35.4591C1.08511 35.6343 1.34811 35.6964 1.58807 35.6235L8.72278 33.4282C11.5177 35.1116 14.7183 36 18 36C27.9255 36 36 27.9255 36 18C36 8.07445 27.9255 0 18 0ZM18 34.6154C14.8717 34.6154 11.824 33.7412 9.18594 32.0875C9.07434 32.0178 8.94661 31.9821 8.81811 31.9821C8.74985 31.9821 8.6809 31.9922 8.61464 32.0124L2.3845 33.9299C2.84225 32.2592 3.66438 29.271 4.14164 27.6092C4.1971 27.4165 4.16601 27.2089 4.05718 27.0406C2.30885 24.3505 1.38462 21.2242 1.38462 18C1.38462 8.83842 8.8384 1.38462 18 1.38462C27.1616 1.38462 34.6154 8.83842 34.6154 18C34.6154 27.1616 27.1616 34.6154 18 34.6154Z" fill="white"/>
<path d="M29.7591 22.241C28.4813 21.5311 27.3928 20.8198 26.5984 20.3006C25.9919 19.9045 25.5538 19.6185 25.2327 19.4576C24.3349 19.0093 23.6541 19.3264 23.3952 19.5874C23.3627 19.6198 23.3336 19.6549 23.3086 19.6928C22.3763 21.0916 21.158 22.4303 20.8017 22.5019C20.3899 22.4377 18.4618 21.3418 16.545 19.7456C14.5885 18.1148 13.358 16.5538 13.1768 15.491C14.4323 14.199 14.8846 13.3863 14.8846 12.4615C14.8846 11.5081 12.661 7.52807 12.2587 7.12584C11.8551 6.72285 10.9464 6.65999 9.55641 6.93649C9.42258 6.96356 9.29949 7.02913 9.20286 7.12584C9.03448 7.29414 5.09836 11.3074 6.96905 16.1718C9.02229 21.5101 14.293 27.7152 21.0126 28.7233C21.7759 28.8375 22.4919 28.8943 23.1626 28.8943C27.1156 28.8943 29.4488 26.9053 30.1059 22.9597C30.1539 22.671 30.0153 22.383 29.7591 22.241ZM21.2181 27.3535C14.1126 26.288 9.63616 19.2479 8.26172 15.6742C6.89808 12.1295 9.4131 8.96953 10.0446 8.25486C10.5584 8.16769 11.0986 8.13114 11.3244 8.16631C11.7956 8.82213 13.4283 11.9064 13.5 12.4615C13.5 12.8252 13.3817 13.3309 11.9721 14.7412C11.8423 14.871 11.7692 15.0468 11.7692 15.2307C11.7692 18.8558 19.415 23.8845 20.7692 23.8845C21.947 23.8845 23.4823 21.9049 24.3565 20.6157C24.4072 20.6177 24.4924 20.6353 24.6134 20.6961C24.8629 20.8212 25.2949 21.1031 25.8412 21.4601C26.5626 21.9313 27.5206 22.5574 28.6516 23.2057C28.1379 25.6775 26.7025 28.1777 21.2181 27.3535Z" fill="white"/>
</g>
<defs>
<clipPath id="clip0_77_50">
<rect width="36" height="36" fill="white"/>
</clipPath>
</defs>
</svg>
