<svg width="45" height="45" viewBox="0 0 45 45" fill="none" xmlns="http://www.w3.org/2000/svg">
<g clip-path="url(#clip0_77_29)">
<path d="M22.5 0C10.093 0 0 10.0931 0 22.5C0 26.7323 1.17638 30.8412 3.40656 34.4092C2.51842 37.5234 0.9127 43.4129 0.895824 43.4746C0.813007 43.7789 0.901731 44.1042 1.12905 44.3239C1.35638 44.5428 1.68514 44.6205 1.98508 44.5293L10.9035 41.7853C14.3971 43.8895 18.3979 45 22.5 45C34.9069 45 45 34.9069 45 22.5C45 10.0931 34.9069 0 22.5 0ZM22.5 43.2692C18.5897 43.2692 14.78 42.1765 11.4824 40.1094C11.3429 40.0223 11.1833 39.9776 11.0226 39.9776C10.9373 39.9776 10.8511 39.9902 10.7683 40.0156L2.98062 42.4123C3.55281 40.324 4.58048 36.5887 5.17706 34.5115C5.24637 34.2706 5.20752 34.0112 5.07148 33.8007C2.88606 30.4381 1.73077 26.5303 1.73077 22.5C1.73077 11.048 11.048 1.73077 22.5 1.73077C33.952 1.73077 43.2692 11.048 43.2692 22.5C43.2692 33.952 33.952 43.2692 22.5 43.2692Z" fill="black"/>
<path d="M37.1989 27.8013C35.6015 26.914 34.241 26.0249 33.248 25.3758C32.4899 24.8807 31.9423 24.5232 31.5409 24.3221C30.4186 23.7617 29.5676 24.1581 29.2439 24.4843C29.2033 24.5248 29.167 24.5688 29.1358 24.6161C27.9703 26.3646 26.4474 28.0379 26.0021 28.1275C25.4874 28.0473 23.0772 26.6773 20.6813 24.6821C18.2356 22.6437 16.6975 20.6923 16.471 19.3638C18.0404 17.7489 18.6058 16.733 18.6058 15.5769C18.6058 14.3853 15.8262 9.4102 15.3234 8.90741C14.8188 8.40367 13.683 8.32509 11.9455 8.67072C11.7782 8.70456 11.6243 8.78651 11.5035 8.90741C11.2931 9.11778 6.37292 14.1343 8.71128 20.2149C11.2778 26.8878 17.8663 34.6441 26.2658 35.9042C27.2199 36.047 28.1148 36.118 28.9532 36.118C33.8945 36.118 36.8109 33.6317 37.6323 28.6997C37.6924 28.3388 37.5192 27.9788 37.1989 27.8013ZM26.5226 34.192C17.6407 32.8601 12.0452 24.06 10.3271 19.5928C8.62257 15.162 11.7663 11.212 12.5557 10.3187C13.198 10.2097 13.8732 10.164 14.1554 10.208C14.7445 11.0278 16.7854 14.8831 16.875 15.5769C16.875 16.0316 16.7271 16.6638 14.9651 18.4266C14.8028 18.5889 14.7115 18.8086 14.7115 19.0385C14.7115 23.5699 24.2687 29.8558 25.9615 29.8558C27.4337 29.8558 29.3529 27.3813 30.4456 25.7697C30.509 25.7722 30.6155 25.7942 30.7667 25.8702C31.0786 26.0266 31.6186 26.379 32.3015 26.8252C33.2032 27.4143 34.4008 28.1968 35.8145 29.0073C35.1723 32.0969 33.3781 35.2222 26.5226 34.192Z" fill="black"/>
</g>
<defs>
<clipPath id="clip0_77_29">
<rect width="45" height="45" fill="white"/>
</clipPath>
</defs>
</svg>
